<svg height="512pt" viewBox="-9 0 512 512" width="512pt" xmlns="http://www.w3.org/2000/svg"><path d="m450.207031 88.277344v52.964844h-406.070312v-52.964844c.03125-9.738282 7.917969-17.628906 17.65625-17.65625h370.757812c9.738281.027344 17.628907 7.917968 17.65625 17.65625zm0 0" fill="#df4d60"/><path d="m450.207031 114.757812h-406.070312l-44.136719 97.105469v26.480469c0 19.503906 15.808594 35.3125 35.308594 35.3125 19.503906 0 35.3125-15.808594 35.3125-35.3125 0 19.503906 15.808594 35.3125 35.308594 35.3125 19.503906 0 35.3125-15.808594 35.3125-35.3125 0 19.503906 15.808593 35.3125 35.308593 35.3125 19.503907 0 35.3125-15.808594 35.3125-35.3125 0 19.503906 15.808594 35.3125 35.308594 35.3125s35.3125-15.808594 35.3125-35.3125c0 19.503906 15.808594 35.3125 35.308594 35.3125s35.308593-15.808594 35.308593-35.3125c0 19.503906 15.8125 35.3125 35.3125 35.3125s35.308594-15.808594 35.308594-35.3125c0 19.503906 15.808594 35.3125 35.3125 35.3125 19.5 0 35.308594-15.808594 35.308594-35.3125v-26.480469zm0 0" fill="#ff5364"/><path d="m35.308594 238.34375h423.726562v256h-423.726562zm0 0" fill="#cb8252"/><path d="m141.242188 211.863281v26.480469c0 19.503906-15.808594 35.3125-35.3125 35.3125-19.5 0-35.308594-15.808594-35.308594-35.3125v-26.480469zm0 0" fill="#95a5a5"/><path d="m211.863281 211.863281v26.480469c0 19.503906-15.808593 35.3125-35.3125 35.3125-19.5 0-35.308593-15.808594-35.308593-35.3125v-26.480469zm0 0" fill="#df4d60"/><path d="m282.484375 211.863281v26.480469c0 19.503906-15.8125 35.3125-35.3125 35.3125s-35.308594-15.808594-35.308594-35.3125v-26.480469zm0 0" fill="#95a5a5"/><g fill="#df4d60"><path d="m494.34375 211.863281v26.480469c0 19.503906-15.808594 35.3125-35.308594 35.3125-19.503906 0-35.3125-15.808594-35.3125-35.3125v-26.480469zm0 0"/><path d="m70.621094 211.863281v26.480469c0 19.503906-15.808594 35.3125-35.3125 35.3125-19.5 0-35.308594-15.808594-35.308594-35.3125v-26.480469zm0 0"/><path d="m353.101562 211.863281v26.480469c0 19.503906-15.808593 35.3125-35.308593 35.3125s-35.308594-15.808594-35.308594-35.3125v-26.480469zm0 0"/></g><path d="m423.722656 211.863281v26.480469c0 19.503906-15.808594 35.3125-35.308594 35.3125s-35.3125-15.808594-35.3125-35.3125v-26.480469zm0 0" fill="#95a5a5"/><path d="m158.898438 114.757812-17.65625 97.105469h-70.621094l26.480468-97.105469zm0 0" fill="#bdc3c7"/><path d="m335.449219 114.757812 17.652343 97.105469h70.621094l-26.480468-97.105469zm0 0" fill="#bdc3c7"/><path d="m211.863281 114.757812h70.621094v97.105469h-70.621094zm0 0" fill="#bdc3c7"/><path d="m211.863281 317.792969h70.621094c4.875 0 8.824219 3.953125 8.824219 8.828125v150.070312h-88.273438v-150.070312c0-4.875 3.953125-8.828125 8.828125-8.828125zm0 0" fill="#805333"/><path d="m344.277344 317.792969h70.621094c4.875 0 8.824218 3.953125 8.824218 8.828125v79.449218c0 4.875-3.949218 8.828126-8.824218 8.828126h-70.621094c-4.875 0-8.828125-3.953126-8.828125-8.828126v-79.449218c0-4.875 3.953125-8.828125 8.828125-8.828125zm0 0" fill="#90bae1"/><path d="m79.449219 317.792969h70.621093c4.875 0 8.828126 3.953125 8.828126 8.828125v79.449218c0 4.875-3.953126 8.828126-8.828126 8.828126h-70.621093c-4.875 0-8.828125-3.953126-8.828125-8.828126v-79.449218c0-4.875 3.953125-8.828125 8.828125-8.828125zm0 0" fill="#90bae1"/><path d="m121 338.035156c-3.464844-3.347656-8.96875-3.296875-12.375.105469-3.40625 3.40625-3.453125 8.914063-.109375 12.375l17.65625 17.65625c3.464844 3.34375 8.96875 3.296875 12.375-.105469 3.40625-3.40625 3.453125-8.914062.109375-12.375zm0 0" fill="#b0d3f0"/><path d="m403.484375 355.691406-17.65625-17.65625c-3.464844-3.347656-8.96875-3.296875-12.375.105469-3.40625 3.40625-3.453125 8.914063-.109375 12.375l17.65625 17.65625c3.464844 3.34375 8.96875 3.296875 12.375-.105469 3.40625-3.40625 3.453125-8.914062.109375-12.375zm0 0" fill="#b0d3f0"/><path d="m256 388.414062h-17.65625c-4.875 0-8.828125-3.953124-8.828125-8.828124s3.953125-8.828126 8.828125-8.828126h17.65625c4.875 0 8.828125 3.953126 8.828125 8.828126s-3.953125 8.828124-8.828125 8.828124zm0 0" fill="#59474e"/><path d="m8.828125 476.691406h476.6875c4.875 0 8.828125 3.949219 8.828125 8.824219v17.65625c0 4.875-3.953125 8.828125-8.828125 8.828125h-476.6875c-4.875 0-8.828125-3.953125-8.828125-8.828125v-17.65625c0-4.875 3.953125-8.824219 8.828125-8.824219zm0 0" fill="#7f8c8d"/><path d="m361.929688 70.621094s-51.375 70.621094-114.757813 70.621094-114.757813-70.621094-114.757813-70.621094 51.375-70.621094 114.757813-70.621094 114.757813 70.621094 114.757813 70.621094zm0 0" fill="#fb7b76"/></svg>