<svg height="512.00003pt" viewBox="0 0 512.00003 512.00003" width="512.00003pt" xmlns="http://www.w3.org/2000/svg"><path d="m25.601562 8.535156h273.066407c9.425781 0 17.066406 7.640625 17.066406 17.066406v460.796876c0 9.425781-7.640625 17.066406-17.066406 17.066406h-273.066407c-9.425781 0-17.066406-7.640625-17.066406-17.066406v-460.796876c0-9.425781 7.640625-17.066406 17.066406-17.066406zm0 0" fill="#607d8b"/><path d="m25.601562 8.535156h247.464844c9.425782 0 17.066406 7.640625 17.066406 17.066406v460.796876c0 9.425781-7.640624 17.066406-17.066406 17.066406h-247.464844c-9.425781 0-17.066406-7.640625-17.066406-17.066406v-460.796876c0-9.425781 7.640625-17.066406 17.066406-17.066406zm0 0" fill="#cfd8dc"/><path d="m8.535156 68.265625h307.199219v392.535156h-307.199219zm0 0" fill="#1566c0"/><path d="m8.535156 68.265625h281.597656v392.535156h-281.597656zm0 0" fill="#2296f3"/><path d="m315.734375 68.265625v8.535156c-5.804687 3.753907-14.507813 9.300781-25.601563 16.808594v-25.34375zm0 0" fill="#0377bc"/><path d="m290.132812 68.265625v25.34375c-124.582031 85.789063-222.238281 205.195313-281.597656 344.320313v-369.664063zm0 0" fill="#02a9f4"/><path d="m486.398438 246.527344v-67.328125c0-4.710938-3.820313-8.53125-8.53125-8.53125h-238.933594c-4.714844 0-8.535156 3.820312-8.535156 8.53125v67.328125l-17.066407 9.472656 8.535157 8.535156h273.066406l8.53125-8.535156zm0 0" fill="#ff9801"/><path d="m503.464844 256v230.398438c-.027344 9.414062-7.652344 17.039062-17.066406 17.066406h-256c-9.414063-.027344-17.035157-7.652344-17.066407-17.066406v-230.398438zm0 0" fill="#fdd834"/><path d="m477.867188 256v230.398438c-.027344 9.414062-7.652344 17.039062-17.066407 17.066406h-230.402343c-9.414063-.027344-17.035157-7.652344-17.066407-17.066406v-230.398438zm0 0" fill="#ffeb3a"/><path d="m486.398438 179.199219v67.328125l-59.730469-33.195313 56.832031-40.53125c1.855469 1.605469 2.917969 3.945313 2.898438 6.398438zm0 0" fill="#f57c00"/><path d="m290.132812 213.332031-59.734374 33.195313v-67.328125c-.015626-2.453125 1.046874-4.792969 2.902343-6.398438zm0 0" fill="#f57c00"/><path d="m503.464844 256h-76.796875v-42.667969l59.730469 33.195313zm0 0" fill="#fec108"/><path d="m290.132812 213.332031v42.667969h-76.800781l17.066407-9.472656zm0 0" fill="#fec108"/><path d="m298.667969 307.199219c0 9.425781-7.640625 17.066406-17.066407 17.066406-9.425781 0-17.066406-7.640625-17.066406-17.066406s7.640625-17.066407 17.066406-17.066407c9.425782 0 17.066407 7.640626 17.066407 17.066407zm0 0" fill="#e57e25"/><path d="m452.265625 307.199219c0 9.425781-7.640625 17.066406-17.066406 17.066406s-17.066407-7.640625-17.066407-17.066406 7.640626-17.066407 17.066407-17.066407 17.066406 7.640626 17.066406 17.066407zm0 0" fill="#e57e25"/><path d="m153.601562 51.199219h17.066407c4.710937 0 8.53125-3.820313 8.53125-8.53125 0-4.714844-3.820313-8.535157-8.53125-8.535157h-17.066407c-4.714843 0-8.535156 3.820313-8.535156 8.535157 0 4.710937 3.820313 8.53125 8.535156 8.53125zm0 0"/><path d="m182.261719 169.675781c-6.152344-3.6875-13.007813-6.046875-20.128907-6.929687v-25.164063c3.910157.605469 7.671876 1.929688 11.09375 3.910157 2.589844 1.617187 5.847657 1.726562 8.546876.292968 2.695312-1.4375 4.421874-4.199218 4.523437-7.253906.105469-3.050781-1.425781-5.929688-4.015625-7.546875-6.171875-3.613281-13.039062-5.882813-20.148438-6.664063v-9.386718c0-4.714844-3.820312-8.535156-8.53125-8.535156-4.714843 0-8.535156 3.820312-8.535156 8.535156v9.386718c-7.105468.792969-13.960937 3.078126-20.121094 6.707032-8.242187 4.480468-13.554687 12.933594-14.011718 22.304687.453125 9.375 5.761718 17.835938 14.003906 22.324219 6.152344 3.6875 13.007812 6.046875 20.128906 6.929688v25.164062c-3.90625-.601562-7.671875-1.925781-11.09375-3.90625-2.589844-1.617188-5.847656-1.730469-8.542968-.296875-2.699219 1.4375-4.421876 4.203125-4.527344 7.253906-.105469 3.054688 1.425781 5.929688 4.015625 7.546875 6.164062 3.679688 13.023437 6.03125 20.148437 6.90625v9.144532c0 4.714843 3.820313 8.535156 8.535156 8.535156 4.710938 0 8.53125-3.820313 8.53125-8.535156v-9.144532c7.117188-.882812 13.972657-3.242187 20.121094-6.929687 8.25-4.484375 13.558594-12.949219 14.011719-22.324219-.453125-9.375-5.757813-17.835938-14.003906-22.324219zm-54.261719-20.34375c.578125-3.4375 2.8125-6.371093 5.972656-7.839843 3.421875-1.980469 7.1875-3.304688 11.09375-3.910157v23.699219c-3.910156-.679688-7.667968-2.058594-11.09375-4.0625-3.171875-1.480469-5.410156-4.429688-5.972656-7.886719zm45.226562 50.511719c-3.421874 1.980469-7.183593 3.304688-11.09375 3.90625v-23.652344c3.910157.679688 7.667969 2.054688 11.09375 4.058594 3.160157 1.472656 5.394532 4.40625 5.972657 7.84375-.578125 3.4375-2.8125 6.371094-5.972657 7.84375zm0 0"/><path d="m85.332031 298.667969h-17.066406c-4.710937 0-8.53125 3.820312-8.53125 8.53125 0 4.714843 3.820313 8.535156 8.53125 8.535156h17.066406c4.714844 0 8.535157-3.820313 8.535157-8.535156 0-4.710938-3.820313-8.53125-8.535157-8.53125zm0 0"/><path d="m162.132812 298.667969h-42.667968c-4.710938 0-8.53125 3.820312-8.53125 8.53125 0 4.714843 3.820312 8.535156 8.53125 8.535156h42.667968c4.714844 0 8.535157-3.820313 8.535157-8.535156 0-4.710938-3.820313-8.53125-8.535157-8.53125zm0 0"/><path d="m85.332031 332.800781h-17.066406c-4.710937 0-8.53125 3.820313-8.53125 8.53125 0 4.714844 3.820313 8.535157 8.53125 8.535157h17.066406c4.714844 0 8.535157-3.820313 8.535157-8.535157 0-4.710937-3.820313-8.53125-8.535157-8.53125zm0 0"/><path d="m162.132812 332.800781h-42.667968c-4.710938 0-8.53125 3.820313-8.53125 8.53125 0 4.714844 3.820312 8.535157 8.53125 8.535157h42.667968c4.714844 0 8.535157-3.820313 8.535157-8.535157 0-4.710937-3.820313-8.53125-8.535157-8.53125zm0 0"/><path d="m85.332031 366.933594h-17.066406c-4.710937 0-8.53125 3.820312-8.53125 8.53125 0 4.714844 3.820313 8.535156 8.53125 8.535156h17.066406c4.714844 0 8.535157-3.820312 8.535157-8.535156 0-4.710938-3.820313-8.53125-8.535157-8.53125zm0 0"/><path d="m162.132812 366.933594h-42.667968c-4.710938 0-8.53125 3.820312-8.53125 8.53125 0 4.714844 3.820312 8.535156 8.53125 8.535156h42.667968c4.714844 0 8.535157-3.820312 8.535157-8.535156 0-4.710938-3.820313-8.53125-8.535157-8.53125zm0 0"/><path d="m85.332031 401.066406h-17.066406c-4.710937 0-8.53125 3.820313-8.53125 8.535156 0 4.710938 3.820313 8.53125 8.53125 8.53125h17.066406c4.714844 0 8.535157-3.820312 8.535157-8.53125 0-4.714843-3.820313-8.535156-8.535157-8.535156zm0 0"/><path d="m162.132812 401.066406h-42.667968c-4.710938 0-8.53125 3.820313-8.53125 8.535156 0 4.710938 3.820312 8.53125 8.53125 8.53125h42.667968c4.714844 0 8.535157-3.820312 8.535157-8.53125 0-4.714843-3.820313-8.535156-8.535157-8.535156zm0 0"/><path d="m68.265625 119.464844c4.714844 0 8.535156-3.820313 8.535156-8.53125v-8.535156c0-4.710938-3.820312-8.53125-8.535156-8.53125-4.710937 0-8.53125 3.820312-8.53125 8.53125v8.535156c0 4.710937 3.820313 8.53125 8.53125 8.53125zm0 0"/><path d="m68.265625 213.332031c4.714844 0 8.535156-3.820312 8.535156-8.53125v-68.265625c0-4.714844-3.820312-8.535156-8.535156-8.535156-4.710937 0-8.53125 3.820312-8.53125 8.535156v68.265625c0 4.710938 3.820313 8.53125 8.53125 8.53125zm0 0"/><path d="m511.429688 253.175781c-.195313-.496093-.441407-.976562-.726563-1.425781-.257813-.480469-.5625-.929688-.914063-1.347656-.398437-.421875-.84375-.804688-1.320312-1.136719-.269531-.261719-.554688-.503906-.855469-.730469l-12.679687-7.042968v-62.292969c0-9.425781-7.640625-17.066407-17.066406-17.066407h-153.601563v-136.53125c0-14.140624-11.460937-25.601562-25.597656-25.601562h-273.066407c-14.140624 0-25.601562 11.460938-25.601562 25.601562v460.796876c0 14.140624 11.460938 25.601562 25.601562 25.601562h460.796876c14.140624 0 25.601562-11.460938 25.601562-25.601562v-230.398438c-.046875-.367188-.121094-.726562-.222656-1.082031-.050782-.59375-.167969-1.175781-.347656-1.742188zm-212.761719-5.710937v-34.132813c0-.125-.070313-.230469-.070313-.355469-.039062-.898437-.21875-1.78125-.527344-2.621093-.070312-.152344-.09375-.324219-.164062-.476563-.394531-.867187-.929688-1.660156-1.585938-2.347656-.15625-.164062-.320312-.316406-.496093-.460938-.230469-.242187-.472657-.472656-.734375-.683593l-38.125-27.1875h202.871094l-38.128907 27.1875c-.257812.210937-.503906.441406-.730469.683593-.175781.144532-.339843.296876-.496093.460938-.65625.6875-1.191407 1.480469-1.585938 2.347656-.070312.152344-.09375.324219-.164062.476563-.308594.839843-.488281 1.722656-.527344 2.621093 0 .125-.070313.230469-.070313.355469v34.132813zm-52.40625 0 35.339843-19.625v19.625zm-7.328125-60.167969 35.242187 25.183594-35.242187 19.53125zm196.265625 40.542969 35.335937 19.625h-35.335937zm7.425781-15.359375 35.242188-25.183594v44.714844zm-417.023438-195.414063h273.066407c4.710937 0 8.53125 3.820313 8.53125 8.535156v34.132813h-290.132813v-34.132813c0-4.714843 3.820313-8.535156 8.535156-8.535156zm-8.535156 469.332032v-17.066407h162.132813c4.714843 0 8.535156-3.820312 8.535156-8.53125 0-4.714843-3.820313-8.535156-8.535156-8.535156h-162.132813v-375.464844h290.132813v85.332031h-68.265625c-9.425782 0-17.066406 7.640626-17.066406 17.066407v62.292969l-12.671876 7.042968c-.300781.226563-.585937.46875-.855468.730469-.476563.332031-.921875.714844-1.320313 1.136719-.351562.417968-.65625.867187-.914062 1.347656-.285157.449219-.53125.929688-.726563 1.425781-.175781.554688-.292968 1.125-.347656 1.707031-.105469.367188-.179688.738282-.230469 1.117188v230.398438c.027344 2.914062.558594 5.800781 1.570313 8.535156h-180.769532c-4.714843 0-8.535156-3.820313-8.535156-8.535156zm469.332032 8.535156h-256c-4.710938 0-8.53125-3.820313-8.53125-8.535156v-17.066407h213.332031c4.714843 0 8.535156-3.820312 8.535156-8.53125 0-4.714843-3.820313-8.535156-8.535156-8.535156h-213.332031v-187.730469h273.066406v187.730469h-25.601563c-4.710937 0-8.53125 3.820313-8.53125 8.535156 0 4.710938 3.820313 8.53125 8.53125 8.53125h25.601563v17.066407c0 4.714843-3.820313 8.535156-8.535156 8.535156zm0 0"/><path d="m460.800781 307.199219c.054688-13.03125-9.691406-24.023438-22.636719-25.53125-12.945312-1.511719-24.957031 6.945312-27.902343 19.640625-2.945313 12.695312 4.117187 25.578125 16.40625 29.921875v1.570312c-.03125 23.550781-19.117188 42.636719-42.667969 42.664063h-51.199219c-23.554687-.027344-42.640625-19.113282-42.667969-42.664063v-1.570312c11.753907-4.15625 18.808594-16.175781 16.699219-28.464844s-12.765625-21.273437-25.230469-21.273437c-12.46875 0-23.125 8.984374-25.234374 21.273437-2.105469 12.289063 4.945312 24.308594 16.699218 28.464844v1.570312c.039063 32.972657 26.757813 59.695313 59.734375 59.734375h51.199219c32.972656-.039062 59.695312-26.761718 59.734375-59.734375v-1.570312c10.191406-3.605469 17.019531-13.21875 17.066406-24.03125zm-179.199219-8.53125c4.710938 0 8.53125 3.820312 8.53125 8.53125 0 4.714843-3.820312 8.535156-8.53125 8.535156-4.714843 0-8.535156-3.820313-8.535156-8.535156 0-4.710938 3.820313-8.53125 8.535156-8.53125zm153.597657 17.066406c-4.710938 0-8.53125-3.820313-8.53125-8.535156 0-4.710938 3.820312-8.53125 8.53125-8.53125 4.714843 0 8.535156 3.820312 8.535156 8.53125 0 4.714843-3.820313 8.535156-8.535156 8.535156zm0 0"/></svg>