<svg height="504pt" viewBox="0 0 504 504.30265" width="504pt" xmlns="http://www.w3.org/2000/svg"><path d="m379.1875 380.382812-5.8125-40.960937-5.035156-34.710937-3.730469-8.679688h-347.117187l-5.207032 8.679688-11.976562 75.671874c-.675782 5.015626.855468 10.078126 4.203125 13.875 3.347656 3.796876 8.179687 5.953126 13.238281 5.910157h344.257812c5.023438 0 9.804688-2.179688 13.101563-5.976563 3.292969-3.796875 4.78125-8.832031 4.078125-13.808594zm0 0" fill="#3b97d3"/><path d="m368.339844 304.710938h-180.585938c-4.125-.003907-7.679687 2.898437-8.507812 6.941406l-17.699219 88.515625h-69.425781l17.007812-85.046875c.523438-2.550782-.132812-5.203125-1.78125-7.222656-1.648437-2.019532-4.117187-3.191407-6.722656-3.1875h-88.339844l10.933594-69.425782 7.289062-45.820312c1.285157-8.625 8.722657-14.988282 17.441407-14.925782h286.199219c8.722656-.0625 16.160156 6.300782 17.445312 14.925782l6.679688 45.820312zm0 0" fill="#4fba6f"/><path d="m368.339844 304.710938h-180.585938c-4.125-.003907-7.679687 2.898437-8.507812 6.941406l-17.699219 88.515625h-69.425781l17.007812-85.046875c.523438-2.550782-.132812-5.203125-1.78125-7.222656-1.648437-2.019532-4.117187-3.191407-6.722656-3.1875h-88.339844l10.933594-69.425782h335.054688zm0 0" fill="#f0c419"/><g fill="#e64c3c"><path d="m234.378906 452.554688c0-.292969 0-.570313 0-.867188-.050781-.734375-.191406-1.460938-.425781-2.160156-.082031-.296875-.183594-.585938-.304687-.867188-.410157-.96875-.996094-1.851562-1.734376-2.605468l-17.355468-17.355469c-3.40625-3.289063-8.816406-3.242188-12.164063.105469-3.347656 3.347656-3.394531 8.761718-.105469 12.167968l2.542969 2.539063h-74.527343c-4.792969 0-8.679688 3.886719-8.679688 8.679687 0 4.792969 3.886719 8.679688 8.679688 8.679688h74.507812l-2.542969 2.539062c-2.253906 2.179688-3.160156 5.40625-2.367187 8.441406.796875 3.035157 3.164062 5.402344 6.199218 6.199219 3.035157.792969 6.261719-.113281 8.441407-2.367187l17.355469-17.355469c.078124-.078125.101562-.183594.171874-.261719.726563-.738281 1.316407-1.605468 1.734376-2.550781 0-.070313 0-.148437.054687-.226563.320313-.875.496094-1.800781.519531-2.734374zm0 0"/><path d="m95.59375 443.558594h-8.679688c-4.792968 0-8.675781 3.882812-8.675781 8.675781s3.882813 8.679687 8.675781 8.679687h8.679688c4.792969 0 8.675781-3.886718 8.675781-8.679687s-3.882812-8.675781-8.675781-8.675781zm0 0"/><path d="m269.152344 78.101562c0 34.140626-50.183594 139.332032-70.101563 186.621094-1.351562 3.21875-4.507812 5.316406-8 5.316406-3.496093 0-6.648437-2.097656-8-5.316406-19.917969-47.289062-70.101562-152.480468-70.101562-186.621094 0-43.132812 34.964843-78.101562 78.101562-78.101562 43.132813 0 78.101563 34.96875 78.101563 78.101562zm0 0"/></g><path d="m225.761719 79.082031c0 19.171875-15.539063 34.710938-34.710938 34.710938s-34.710937-15.539063-34.710937-34.710938 15.539062-34.710937 34.710937-34.710937 34.710938 15.539062 34.710938 34.710937zm0 0" fill="#c03a2b"/><path d="m234.441406 278.675781h-86.78125c-4.792968 0-8.679687-3.886719-8.679687-8.679687 0-4.792969 3.886719-8.675782 8.679687-8.675782h86.78125c4.792969 0 8.675782 3.882813 8.675782 8.675782 0 4.792968-3.882813 8.679687-8.675782 8.679687zm0 0" fill="#f29c1f"/><path d="m503.457031 420.125v32.109375c-.027343 9.574219-7.78125 17.328125-17.355469 17.355469h-69.425781v-104.132813h47.382813c2.929687.003907 5.660156 1.46875 7.289062 3.902344l26.296875 39.484375 4.335938 6.507812c.953125 1.410157 1.46875 3.074219 1.476562 4.773438zm0 0" fill="#a5a5a4"/><path d="m425.355469 400.167969v69.421875h-156.203125c-4.792969 0-8.679688-3.882813-8.679688-8.675782v-43.390624zm0 0" fill="#d1d4d1"/><path d="m425.355469 348.097656v69.425782h-164.882813v-69.425782c0-4.792968 3.886719-8.675781 8.679688-8.675781h147.523437c4.792969 0 8.679688 3.882813 8.679688 8.675781zm0 0" fill="#e64c3c"/><path d="m347.253906 478.269531c0 14.378907-11.65625 26.03125-26.035156 26.03125s-26.03125-11.652343-26.03125-26.03125c0-14.378906 11.652344-26.035156 26.03125-26.035156s26.035156 11.65625 26.035156 26.035156zm0 0" fill="#2c3e50"/><path d="m451.390625 478.269531c0 14.378907-11.65625 26.03125-26.035156 26.03125-14.378907 0-26.035157-11.652343-26.035157-26.03125 0-14.378906 11.65625-26.035156 26.035157-26.035156 14.378906 0 26.035156 11.65625 26.035156 26.035156zm0 0" fill="#2c3e50"/><path d="m329.898438 478.269531c0 4.792969-3.886719 8.675781-8.679688 8.675781s-8.675781-3.882812-8.675781-8.675781 3.882812-8.679687 8.675781-8.679687 8.679688 3.886718 8.679688 8.679687zm0 0" fill="#a5a5a4"/><path d="m434.03125 478.269531c0 4.792969-3.882812 8.675781-8.675781 8.675781s-8.679688-3.882812-8.679688-8.675781 3.886719-8.679687 8.679688-8.679687 8.675781 3.886718 8.675781 8.679687zm0 0" fill="#a5a5a4"/><path d="m497.644531 408.84375h-46.253906c-4.792969 0-8.679687-3.882812-8.679687-8.675781v-34.710938h21.347656c2.929687.003907 5.660156 1.46875 7.289062 3.902344zm0 0" fill="#b0d3f0"/></svg>