<svg height="512pt" viewBox="0 0 512 512.0392" width="512pt" xmlns="http://www.w3.org/2000/svg"><path d="m417.671875 419.308594-62.585937-62.585938c-10.378907-10.21875-27.0625-10.140625-37.339844.175782l-40.695313 40.695312c-4.363281 4.449219-11.234375 5.257812-16.507812 1.941406-28.640625-20.257812-55.488281-42.9375-80.242188-67.792968-24.855469-24.757813-47.539062-51.605469-67.796875-80.246094-3.316406-5.273438-2.507812-12.144532 1.941406-16.503906l24.980469-24.984376 15.714844-15.710937c10.316406-10.28125 10.394531-26.964844.175781-37.34375l-62.585937-62.585937c-10.339844-10.234376-27.011719-10.15625-37.253907.175781l-15.800781 15.714843-12.359375 12.355469c-56.9375 56.941407-21.890625 184.058594 78.035156 284.074219 99.929688 100.015625 227.136719 134.972656 284.074219 78.035156l12.359375-12.359375 15.710938-15.800781c10.332031-10.238281 10.410156-26.914062.175781-37.253906zm0 0" fill="#4fba6f"/><path d="m417.496094 456.5625-15.710938 15.800781-99.753906-99.75 15.714844-15.714843c10.277344-10.316407 26.960937-10.394532 37.339844-.175782l62.585937 62.585938c10.234375 10.339844 10.15625 27.015625-.175781 37.253906zm0 0" fill="#24ae5f"/><path d="m155.140625 194.296875-15.714844 15.710937-99.75-99.75 15.800781-15.714843c10.242188-10.332031 26.914063-10.410157 37.253907-.175781l62.585937 62.585937c10.21875 10.378906 10.140625 27.0625-.175781 37.34375zm0 0" fill="#24ae5f"/><path d="m136.585938 375.453125c-27.046876-26.667969-49.839844-57.332031-67.574219-90.921875-2.230469-4.335938-7.550781-6.046875-11.886719-3.820312-4.339844 2.230468-6.046875 7.550781-3.820312 11.886718 18.578124 35.21875 42.457031 67.371094 70.796874 95.339844 6.425782 6.433594 13.058594 12.667969 19.703126 18.539062 3.65625 3.222657 9.238281 2.875 12.460937-.78125 3.226563-3.65625 2.875-9.238281-.78125-12.460937-6.371094-5.632813-12.730469-11.609375-18.898437-17.78125zm0 0" fill="#71c285"/><path d="m196.894531 425.039062c-4.765625-3.148437-9.546875-6.484374-14.34375-10.011718-3.933593-2.882813-9.460937-2.035156-12.347656 1.894531-2.882813 3.933594-2.035156 9.460937 1.894531 12.347656 5.03125 3.6875 10.054688 7.1875 15.070313 10.496094 1.4375.957031 3.125 1.464844 4.855469 1.464844 3.894531 0 7.332031-2.554688 8.453124-6.285157 1.125-3.730468-.332031-7.757812-3.582031-9.90625zm0 0" fill="#71c285"/><path d="m512.039062 17.65625v238.34375c-.027343 9.738281-7.914062 17.625-17.65625 17.65625h-158.894531l-73.929687 59.859375c-2.652344 2.121094-6.28125 2.535156-9.34375 1.066406-3.058594-1.472656-5.003906-4.566406-5.003906-7.960937v-52.964844h-17.652344c-9.738282-.03125-17.628906-7.917969-17.65625-17.65625v-238.34375c.027344-9.738281 7.917968-17.6289062 17.65625-17.65625h264.824218c9.742188.0273438 17.628907 7.917969 17.65625 17.65625zm0 0" fill="#4482c3"/><path d="m353.144531 211.863281c0 14.625-11.859375 26.480469-26.484375 26.480469s-26.480468-11.855469-26.480468-26.480469c0-14.628906 11.855468-26.484375 26.480468-26.484375s26.484375 11.855469 26.484375 26.484375zm0 0" fill="#95a5a5"/><path d="m441.417969 211.863281c0 14.625-11.855469 26.480469-26.480469 26.480469-14.628906 0-26.484375-11.855469-26.484375-26.480469 0-14.628906 11.855469-26.484375 26.484375-26.484375 14.625 0 26.480469 11.855469 26.480469 26.484375zm0 0" fill="#95a5a5"/><path d="m456.054688 61.792969c2.789062 0 5.414062 1.316406 7.078124 3.554687 1.664063 2.234375 2.175782 5.125 1.378907 7.796875l-4.644531 15.574219-5.207032 17.210938-11.351562 37.84375c-1.121094 3.738281-4.558594 6.296874-8.457032 6.296874h-143.5l-6.621093-88.277343zm0 0" fill="#e6e7e8"/><path d="m459.867188 88.71875-5.207032 17.210938h-110.34375c-4.875 0-8.828125-3.949219-8.828125-8.828126 0-4.875 3.953125-8.824218 8.828125-8.824218h112.992188c.871094.007812 1.734375.15625 2.558594.441406zm0 0" fill="#d1d4d1"/><path d="m450.246094 194.207031h-141.242188c-14.625 0-26.480468-11.855469-26.480468-26.484375l-8.289063-123.585937h-18.195313c-4.875 0-8.828124-3.949219-8.828124-8.828125 0-4.875 3.953124-8.824219 8.828124-8.824219h26.484376c4.667968-.011719 8.539062 3.617187 8.828124 8.277344l8.828126 132.414062c-.105469 2.421875.773437 4.785157 2.4375 6.546875 1.660156 1.765625 3.964843 2.785156 6.386718 2.828125h141.242188c4.875 0 8.828125 3.953125 8.828125 8.828125s-3.953125 8.828125-8.828125 8.828125zm0 0" fill="#bdc3c7"/></svg>